<svg xmlns="http://www.w3.org/2000/svg" width="800" height="560" fill="none" viewBox="0 0 800 560">
  <defs>
    <linearGradient id="g" x1="0" y1="0" x2="1" y2="1">
      <stop offset="0%" stop-color="#1a1a22"/>
      <stop offset="100%" stop-color="#0f0f14"/>
    </linearGradient>
    <linearGradient id="a" x1="0" y1="0" x2="1" y2="0">
      <stop offset="0%" stop-color="#d4af37" stop-opacity="0.35"/>
      <stop offset="100%" stop-color="#8b7ec8" stop-opacity="0.25"/>
    </linearGradient>
  </defs>
  <rect width="800" height="560" rx="20" fill="url(#g)"/>
  <rect x="24" y="24" width="752" height="48" rx="12" fill="#14141c" stroke="#2a2a36" stroke-width="1"/>
  <circle cx="52" cy="48" r="8" fill="#ef4444"/>
  <circle cx="76" cy="48" r="8" fill="#eab308"/>
  <circle cx="100" cy="48" r="8" fill="#22c55e"/>
  <rect x="140" y="38" width="200" height="20" rx="6" fill="#2a2a36"/>
  <rect x="24" y="92" width="200" height="444" rx="14" fill="#12121a" stroke="#2a2a36" stroke-width="1"/>
  <rect x="44" y="116" width="140" height="10" rx="4" fill="#3f3f4f"/>
  <rect x="44" y="138" width="100" height="8" rx="4" fill="#2a2a36"/>
  <rect x="44" y="168" width="160" height="36" rx="8" fill="#1c1c26" stroke="#2f2f3d"/>
  <rect x="44" y="216" width="160" height="36" rx="8" fill="#1c1c26" stroke="#2f2f3d"/>
  <rect x="44" y="264" width="160" height="36" rx="8" fill="#252530" stroke="#d4af37" stroke-opacity="0.4"/>
  <rect x="240" y="92" width="536" height="280" rx="14" fill="url(#a)" opacity="0.15"/>
  <rect x="240" y="92" width="536" height="280" rx="14" stroke="#2a2a36" stroke-width="1"/>
  <rect x="268" y="124" width="240" height="14" rx="4" fill="#3f3f4f"/>
  <rect x="268" y="152" width="480" height="120" rx="10" fill="#14141c" stroke="#2a2a36"/>
  <rect x="288" y="172" width="120" height="80" rx="8" fill="#1e1e28"/>
  <rect x="424" y="172" width="300" height="12" rx="4" fill="#2a2a36"/>
  <rect x="424" y="196" width="260" height="12" rx="4" fill="#252530"/>
  <rect x="424" y="220" width="200" height="12" rx="4" fill="#252530"/>
  <rect x="268" y="288" width="160" height="36" rx="8" fill="#d4af37" fill-opacity="0.2" stroke="#d4af37" stroke-opacity="0.5"/>
  <rect x="240" y="392" width="260" height="144" rx="14" fill="#12121a" stroke="#2a2a36"/>
  <rect x="516" y="392" width="260" height="144" rx="14" fill="#12121a" stroke="#2a2a36"/>
  <rect x="264" y="420" width="100" height="8" rx="4" fill="#2a2a36"/>
  <rect x="540" y="420" width="100" height="8" rx="4" fill="#2a2a36"/>
</svg>
