<svg xmlns="http://www.w3.org/2000/svg" width="800" height="520" fill="none" viewBox="0 0 800 520">
  <defs>
    <linearGradient id="igbg" x1="0" y1="0" x2="1" y2="1">
      <stop offset="0%" stop-color="#2d1f3d"/>
      <stop offset="50%" stop-color="#1a1423"/>
      <stop offset="100%" stop-color="#0f0a14"/>
    </linearGradient>
    <linearGradient id="iggrad" x1="0%" y1="100%" x2="100%" y2="0%">
      <stop offset="0%" stop-color="#f09433"/>
      <stop offset="50%" stop-color="#e6683c"/>
      <stop offset="100%" stop-color="#bc1888"/>
    </linearGradient>
  </defs>
  <rect width="800" height="520" fill="url(#igbg)"/>
  <rect x="28" y="28" width="744" height="52" rx="14" fill="#ffffff" fill-opacity="0.06" stroke="#ffffff" stroke-opacity="0.1"/>
  <rect x="52" y="44" width="36" height="20" rx="6" fill="url(#iggrad)" opacity="0.9"/>
  <text x="100" y="60" fill="#fff" font-family="system-ui,sans-serif" font-size="15" font-weight="700">Professional dashboard</text>
  <rect x="28" y="100" width="280" height="392" rx="20" fill="#121016" stroke="#ffffff" stroke-opacity="0.08"/>
  <rect x="48" y="120" width="240" height="320" rx="12" fill="#1a1520"/>
  <rect x="68" y="140" width="200" height="200" rx="8" fill="#2a2435"/>
  <circle cx="168" cy="240" r="36" fill="url(#iggrad)" opacity="0.35"/>
  <text x="108" y="368" fill="#e5e5e5" font-family="system-ui,sans-serif" font-size="14" font-weight="600">Reels performance</text>
  <text x="108" y="396" fill="#a78bfa" font-family="system-ui,sans-serif" font-size="22" font-weight="700">6.9M plays</text>
  <rect x="324" y="100" width="448" height="188" rx="16" fill="#121016" stroke="#ffffff" stroke-opacity="0.08"/>
  <text x="348" y="140" fill="#9ca3af" font-family="system-ui,sans-serif" font-size="12" font-weight="600">Accounts reached</text>
  <text x="348" y="182" fill="#fff" font-family="system-ui,sans-serif" font-size="30" font-weight="700">4.1M</text>
  <rect x="348" y="204" width="380" height="6" rx="3" fill="#ffffff" fill-opacity="0.1"/>
  <rect x="348" y="204" width="300" height="6" rx="3" fill="url(#iggrad)" opacity="0.85"/>
  <rect x="324" y="308" width="448" height="184" rx="16" fill="#121016" stroke="#ffffff" stroke-opacity="0.08"/>
  <text x="348" y="348" fill="#9ca3af" font-family="system-ui,sans-serif" font-size="12">Follower growth</text>
  <text x="348" y="388" fill="#fff" font-family="system-ui,sans-serif" font-size="28" font-weight="700">+2.1k</text>
  <text x="348" y="418" fill="#86efac" font-family="system-ui,sans-serif" font-size="13">Waitlist conversions</text>
</svg>
